<?xml version="1.0" standalone="no"?>
<!DOCTYPE svg PUBLIC "-//W3C//DTD SVG 20010904//EN"
 "http://www.w3.org/TR/2001/REC-SVG-20010904/DTD/svg10.dtd">
<svg version="1.0" xmlns="http://www.w3.org/2000/svg"
 width="500.000000pt" height="500.000000pt" viewBox="0 0 500.000000 500.000000"
 preserveAspectRatio="xMidYMid meet">

<g transform="translate(0.000000,500.000000) scale(0.100000,-0.100000)"
fill="#000000" stroke="none">
<path d="M0 2500 l0 -2500 2500 0 2500 0 0 2500 0 2500 -2500 0 -2500 0 0
-2500z m2821 1832 c4 -4 12 -158 18 -342 6 -184 16 -438 21 -565 5 -126 11
-306 12 -400 l3 -170 -377 -3 -378 -2 0 87 c0 49 5 178 10 288 5 110 12 306
16 435 4 129 8 242 10 250 1 8 3 42 3 74 1 58 1 59 21 41 19 -17 24 -17 130 0
121 19 160 39 160 80 0 37 -40 58 -113 57 -70 0 -128 -20 -171 -60 l-29 -27 7
70 c3 39 6 98 6 132 0 49 3 62 17 65 33 6 628 -3 634 -10z m-271 -2085 l0 -34
-50 16 c-35 11 -50 21 -50 34 0 14 9 17 50 17 50 0 50 0 50 -33z m-32 -63 c12
-8 22 -21 22 -29 0 -19 -34 -8 -61 21 -21 23 -21 24 -3 24 11 0 30 -7 42 -16z
m-994 -260 c7 -64 4 -74 -30 -74 -24 0 -24 -1 -24 -95 0 -88 1 -95 20 -95 17
0 20 -7 20 -50 l0 -50 -80 0 -81 0 3 58 c3 50 6 57 26 60 21 3 22 8 22 78 0
66 -2 74 -19 74 -21 0 -31 34 -31 106 l0 44 84 0 83 0 7 -56z m420 40 c13 -5
16 -24 16 -98 l1 -91 47 53 c26 28 51 52 57 52 5 0 29 -19 52 -42 l43 -43 -67
-61 -68 -61 29 -37 c29 -38 29 -62 -1 -73 -12 -5 -29 7 -59 40 -45 50 -54 47
-54 -14 0 -24 -4 -29 -24 -29 -13 0 -27 7 -30 16 -8 21 -8 379 1 387 8 9 36 9
57 1z m544 -8 c15 -9 16 -174 2 -196 -7 -11 -33 -16 -100 -19 -98 -3 -108 -9
-96 -56 6 -24 9 -25 91 -25 l85 0 0 -49 c0 -32 -5 -51 -13 -54 -8 -3 -59 -8
-114 -12 l-99 -7 -12 39 c-19 64 -31 218 -25 310 l6 86 132 -5 c72 -2 136 -8
143 -12z m1082 -81 c0 -63 1 -65 25 -65 20 0 25 -5 25 -25 0 -20 -5 -25 -25
-25 -21 0 -25 -5 -25 -30 0 -27 3 -30 34 -30 40 0 46 -11 46 -80 0 -48 -1 -49
-33 -55 -18 -4 -51 -5 -72 -3 -47 4 -53 17 -54 126 -1 65 -3 72 -21 72 -22 0
-23 1 -14 24 3 9 12 16 20 16 11 0 14 17 14 70 l0 70 40 0 40 0 0 -65z m-1892
5 c1 -3 29 -4 62 -2 57 4 60 3 70 -22 5 -15 10 -88 10 -162 l0 -134 -45 0 -45
0 0 89 c0 70 -3 90 -15 95 -39 15 -55 -23 -55 -131 0 -52 -1 -53 -29 -53 -37
0 -41 20 -41 195 0 98 3 135 13 138 15 6 71 -4 75 -13z m972 0 c0 -5 20 -7 48
-3 l49 5 6 -47 c14 -95 14 -95 -47 -95 l-53 0 -7 -90 -8 -90 -37 0 -38 0 -7
86 c-3 47 -3 122 0 165 l7 79 43 0 c24 0 44 -4 44 -10z m290 -51 l24 -50 14
28 c37 73 40 75 72 56 17 -9 30 -20 30 -24 0 -4 -18 -58 -41 -121 -37 -104
-115 -258 -131 -258 -11 0 -68 51 -68 61 0 6 15 32 33 59 l34 50 -48 93 c-27
50 -49 98 -49 105 0 12 72 51 96 52 6 0 21 -23 34 -51z m422 14 c26 -23 38
-77 38 -169 0 -94 1 -93 -94 -103 l-59 -6 2 -72 2 -73 -55 0 -56 0 0 218 c0
120 3 222 7 226 14 14 196 -4 215 -21z"/>
<path d="M2553 4196 c-62 -28 -38 -57 88 -105 112 -42 126 -44 148 -22 17 17
19 25 10 50 -21 61 -176 109 -246 77z"/>
<path d="M2594 4021 c-40 -24 -68 -64 -85 -119 l-13 -44 -19 42 c-23 49 -72
89 -119 96 -111 18 -208 -128 -179 -267 15 -67 33 -100 76 -138 79 -69 194
-22 235 98 l16 49 22 -42 c30 -56 84 -91 139 -91 28 0 42 -4 40 -12 -1 -7 7
-18 18 -26 19 -14 16 -19 -65 -100 -68 -67 -97 -88 -145 -106 -72 -27 -159
-23 -205 9 -39 28 -47 25 -65 -16 -19 -45 -19 -43 3 -38 13 4 22 -7 37 -46 16
-40 24 -50 38 -46 17 4 17 3 4 -12 -13 -15 -12 -22 19 -69 103 -159 245 -149
333 24 33 67 23 131 -15 93 -6 -6 -10 5 -9 32 0 33 4 43 18 46 13 3 17 -3 17
-27 0 -23 4 -29 15 -25 19 8 33 58 41 153 6 61 9 71 19 57 17 -22 35 -20 35 4
0 31 -26 75 -55 94 l-26 17 31 26 c68 57 95 165 67 264 -34 115 -139 171 -223
120z m130 -32 c101 -80 91 -289 -17 -342 -47 -24 -79 -17 -123 27 -58 58 -71
168 -29 252 40 80 113 107 169 63z m-317 -51 c89 -83 83 -272 -11 -329 -93
-57 -188 28 -188 167 0 151 113 242 199 162z m313 -494 c0 -18 -15 -41 -47
-73 -38 -38 -47 -54 -50 -88 -3 -26 0 -43 6 -43 6 0 11 -4 11 -10 0 -5 -5 -10
-11 -10 -16 0 -41 28 -30 34 11 7 20 66 10 66 -4 0 -16 -8 -28 -17 -24 -21
-34 -70 -13 -65 8 1 11 -2 7 -8 -14 -22 -35 -10 -35 20 0 43 -25 38 -47 -10
-6 -14 -12 -19 -12 -12 -1 9 -6 10 -20 2 -24 -13 -52 -3 -44 16 5 15 -23 31
-35 20 -3 -4 -1 -16 6 -26 7 -11 9 -20 4 -20 -14 0 -32 23 -32 41 0 10 -11 20
-25 23 -20 5 -49 43 -41 53 1 1 20 -4 41 -11 22 -8 68 -12 103 -11 79 4 147
36 222 104 30 28 56 50 58 51 1 0 2 -12 2 -26z"/>
<path d="M2632 3913 c-10 -4 -8 -9 8 -20 28 -20 24 -67 -6 -71 -16 -2 -25 4
-32 25 -10 26 -10 25 -11 -20 -2 -98 55 -145 115 -94 20 18 28 35 31 73 5 43
2 54 -22 82 -25 30 -51 38 -83 25z"/>
<path d="M2320 3875 c-11 -13 -10 -14 2 -10 20 8 40 -19 36 -47 -5 -34 -50
-32 -59 2 -6 23 -6 23 -13 -11 -10 -46 14 -105 48 -121 81 -36 137 97 75 176
-23 30 -69 35 -89 11z"/>
<path d="M2450 3260 c-8 -5 -11 -12 -8 -16 10 -9 38 3 38 16 0 12 -10 13 -30
0z"/>
<path d="M2220 3450 c-6 -11 -10 -40 -8 -63 l3 -41 17 25 c20 32 27 91 11 96
-6 2 -17 -5 -23 -17z"/>
<path d="M2660 3316 c0 -8 5 -18 10 -21 6 -3 10 3 10 14 0 12 -4 21 -10 21 -5
0 -10 -6 -10 -14z"/>
<path d="M3246 1685 c-3 -9 -6 -28 -6 -41 0 -21 5 -24 36 -24 35 0 35 1 32 38
-3 32 -7 37 -29 40 -17 2 -29 -3 -33 -13z"/>
</g>
</svg>
